<svg width="137" height="137" xmlns="http://www.w3.org/2000/svg" xmlns:xlink="http://www.w3.org/1999/xlink" xml:space="preserve" overflow="hidden"><defs><clipPath id="clip0"><path d="M111.726 45.7888 181.278 111.959 115.108 181.511 45.5555 115.341Z" fill-rule="evenodd" clip-rule="evenodd"/></clipPath><clipPath id="clip1"><path d="M111.726 45.7888 181.278 111.959 115.108 181.511 45.5555 115.341Z" fill-rule="evenodd" clip-rule="evenodd"/></clipPath><clipPath id="clip2"><path d="M111.726 45.7888 181.278 111.959 115.108 181.511 45.5555 115.341Z" fill-rule="evenodd" clip-rule="evenodd"/></clipPath></defs><g transform="translate(-45 -45)"><g clip-path="url(#clip0)"><g clip-path="url(#clip1)"><g clip-path="url(#clip2)"><path d="M125.643 150.126 131.846 143.606 124.966 108.765 138.407 94.6368C141.095 91.8112 143.161 86.7377 140.988 84.6699 138.887 82.671 133.85 84.9185 131.162 87.744L117.721 101.872 82.5802 96.7352 76.3767 103.256 107.382 112.739 92.3556 128.534 79.1139 127.944 74.9783 132.291 89.9814 138.283 96.7133 152.969 100.849 148.622 99.6006 135.426 114.627 119.632 125.643 150.126Z" fill="#FF6F40"/></g></g></g></g></svg>